<?xml version="1.0" standalone="no"?>
<!DOCTYPE svg PUBLIC "-//W3C//DTD SVG 20010904//EN"
 "http://www.w3.org/TR/2001/REC-SVG-20010904/DTD/svg10.dtd">
<svg version="1.0" xmlns="http://www.w3.org/2000/svg"
 width="1327.000000pt" height="416.000000pt" viewBox="0 0 1327.000000 416.000000"
 preserveAspectRatio="xMidYMid meet">

<g transform="translate(0.000000,416.000000) scale(0.100000,-0.100000)"
fill="#000000" stroke="none">
<path d="M90 2070 l0 -2030 1895 0 1895 0 0 2030 0 2030 -1895 0 -1895 0 0
-2030z m2350 785 l0 -85 -327 -2 -328 -3 0 -265 0 -265 293 -3 292 -2 0 -85 0
-85 -292 -2 -293 -3 -3 -272 -2 -273 327 -2 328 -3 3 -87 3 -88 -436 0 -435 0
0 805 0 805 435 0 435 0 0 -85z"/>
<path d="M4360 2070 l0 -2030 4455 0 4455 0 0 2030 0 2030 -4455 0 -4455 0 0
-2030z m8880 0 l0 -2010 -4427 2 -4428 3 -3 2008 -2 2007 4430 0 4430 0 0
-2010z"/>
<path d="M9530 3083 c-202 -34 -310 -163 -310 -372 0 -123 1 -121 -91 -121
l-79 0 0 -85 0 -85 80 0 80 0 2 -542 3 -543 108 -3 107 -3 0 546 0 545 130 0
130 0 0 85 0 85 -129 0 -129 0 -4 48 c-6 69 9 160 32 198 25 39 86 70 158 79
l52 7 0 84 0 84 -57 -1 c-32 -1 -69 -4 -83 -6z"/>
<path d="M10002 3080 c-19 -4 -47 -20 -63 -36 -113 -108 9 -291 154 -231 54
23 79 69 74 139 -2 44 -9 64 -28 84 -40 43 -82 57 -137 44z"/>
<path d="M10500 2185 l0 -855 105 0 105 0 0 855 0 855 -105 0 -105 0 0 -855z"/>
<path d="M11070 2185 l0 -855 105 0 105 0 0 855 0 855 -105 0 -105 0 0 -855z"/>
<path d="M6340 2136 l0 -806 105 0 105 0 2 328 3 327 125 3 125 2 190 -326
c104 -179 194 -328 200 -330 6 -3 64 -3 128 -2 l118 3 -197 325 c-108 179
-198 330 -201 336 -2 7 10 14 29 18 114 21 239 119 293 229 121 246 35 520
-198 631 -115 54 -143 58 -499 63 l-328 5 0 -806z m666 608 c71 -19 129 -64
161 -126 25 -48 28 -63 28 -153 0 -92 -2 -104 -30 -155 -17 -30 -49 -69 -73
-87 -71 -54 -120 -63 -344 -63 l-198 0 0 300 0 299 143 3 c180 4 249 0 313
-18z"/>
<path d="M8160 2604 c-162 -31 -316 -134 -395 -264 -60 -99 -87 -198 -92 -340
-6 -155 11 -242 67 -357 99 -200 279 -316 515 -330 101 -6 220 13 302 48 114
49 218 149 276 264 50 101 54 95 -75 95 l-113 0 -29 -56 c-33 -62 -88 -112
-161 -145 -42 -19 -68 -23 -160 -23 -92 -1 -119 3 -168 23 -75 30 -167 114
-200 184 -23 48 -53 164 -45 172 1 2 227 5 500 7 274 2 501 7 505 12 14 13 6
208 -11 280 -33 139 -137 285 -251 352 -101 59 -169 76 -310 80 -71 1 -141 0
-155 -2z m275 -194 c75 -26 146 -79 184 -138 29 -46 61 -144 61 -189 l0 -23
-396 0 -397 0 6 51 c18 147 137 276 292 316 64 16 176 8 250 -17z"/>
<path d="M9930 1960 l0 -630 105 0 105 0 0 630 0 630 -105 0 -105 0 0 -630z"/>
</g>
</svg>
